<svg xmlns="http://www.w3.org/2000/svg" width="700" height="630" viewBox="0 0 700 630"><title>Fuel Primary</title><path d="M691.85,325.6c-23.13,40.86-40.67,32.44-45.21,28.55-.74-.64-1.37-1.32-1.37-1.32-6.87-8.57-.73-21.15,6.77-29.85,42.7-49.57,24.14-119.75,24.14-119.75-6.47,36.23-12.07,26.34-12.07,26.34-.86-1.87.85-13.94.85-13.94-15.85,35.9-44.22,46.63-56.21,52-39.39,17.58-36,49-36,49,13-28.67,42.31-35.8,42.31-35.8-14.72,11.18-12.12,38-13.45,64.89C598.23,412.58,541.76,438,541.76,438,699.81,413.37,691.85,325.6,691.85,325.6Z" fill="#0072ce"/><path d="M602.46,259.61c90.66-35,55.34-140.87,55.34-140.87-10.81,59.47-43.64,75.88-70,87.62C478,255.25,527.42,351,527.42,351,520.49,286.86,596.69,261.85,602.46,259.61Z" fill="#0072ce"/><path d="M68,364.67h60.22c1.93-11.33,3.79-21.79,5.72-33.12H73.76Z" fill="#fff"/><path d="M501.46,371.76c-1.38,7.84-2.63,15.58-3.89,21.68H466q11.36-62.74,22.63-128.11H450l-7.21,6.1c-8.79,50.74-17.57,100.28-26.35,149.93l4.4,5.2H531.71l6.21-5.18,11-62.23C533.06,364,519.56,367.58,501.46,371.76Z" fill="#fff"/><path d="M410.41,364.67c1.93-11.33,3.78-21.79,5.72-33.12H356.56l-5.82,33.12Z" fill="#fff"/><path d="M342.51,382.84,356,306.29h72.53c1.65-10.46,4.22-24.61,6.1-35l-4-5.08H321.89l-4.76,4.23q-13.36,75.45-26.69,150.86l4.38,5.27H401.68l6.33-4.94c1.58-8.92,3.13-17.71,4.74-26.44h-72.3s0-.09-.06-.08v.08h0v-.15L342.13,385C342.25,384.16,342.39,383.53,342.51,382.84Z" fill="#fff"/><path d="M303.64,266.17H263.17c-.35,1.74-.64,3.57-.94,5.23q-8.73,49.51-17.48,99c-.88,5-2.13,10-6,14.34-7.5,8.46-16.77,11.06-27.21,10.91-17.37-.26-25.56-9.15-22.73-25.22,5.88-33.39,11.77-67,17.66-100.43a38.73,38.73,0,0,0,.77-4.67H168l-6.92,5.94c-5.8,32.89-11.48,65.92-17.44,98.8-4.07,22.29,4.24,38.5,22.8,49.09,19.87,11.3,43.25,11.74,67.94,5.75,24-5.83,51.61-25.15,56.16-57.31s11.18-64.55,16.85-96.87Z" fill="#fff"/><path d="M148.73,266.17H40.13L35,270.63Q21.7,346,8.41,421.33l4.34,5.22H46.31l6.6-5.32L73.24,306.28h73.14c1.67-10.46,4.28-24.78,6.18-35.13Z" fill="#fff"/><path d="M221.86,237.36V208h6.88v24.51h12.2v4.85Z" fill="#0072ce"/><path d="M294.25,237.36V208h6.88v24.51h12.2v4.85Z" fill="#0072ce"/><polygon points="381.81 207.81 373.3 207.81 364.26 237.44 371.44 237.44 372.91 231.57 374.2 226.32 374.2 226.31 374.26 226.05 374.26 226.05 374.26 226.05 377.51 213.03 377.6 213.03 380.9 226.11 376.52 226.11 375.46 231.33 382.09 231.33 383.68 237.44 390.85 237.44 381.81 207.81" fill="#0072ce"/><polygon points="160.45 207.81 151.94 207.81 142.91 237.44 150.08 237.44 151.56 231.57 152.85 226.32 152.84 226.31 152.9 226.05 152.9 226.05 152.9 226.05 156.15 213.03 156.25 213.03 159.54 226.11 155.16 226.11 154.1 231.33 160.74 231.33 162.32 237.44 169.49 237.44 160.45 207.81" fill="#0072ce"/><path d="M458.37,221.16l-5.31-2c-2.92-1.07-3.54-2.18-3.54-4s.81-3.22,3.92-3.22c2.54,0,3.65,1,3.72,4.21l6.85-1c-.09-5.51-4.64-7.73-10.69-7.73-6.5,0-10.64,2.92-10.64,8.63,0,4.89,2.79,7.12,8.91,8.89,4.54,1.35,6.1,2.35,6.1,5,0,2.47-2,3.62-4.12,3.62-3.54,0-4.45-1.68-4.5-4.31l-6.85-1v1.16c0,5.43,3.05,8.55,10.81,8.55,7.46,0,11.84-2.8,11.84-9C464.94,225.36,463.52,223.09,458.37,221.16Z" fill="#0072ce"/><path d="M80.6,207.81H69.25v22.66h7v-18.3h2.86c5.26,0,5.89,3.55,5.89,10.17,0,8-1,10.71-5.73,10.71h-10v4.36H80.13c9.15,0,11.71-4.82,11.71-15.25C91.85,213.57,90.13,207.81,80.6,207.81Z" fill="#0072ce"/></svg>