<svg xmlns="http://www.w3.org/2000/svg" width="700" height="630" viewBox="0 0 700 630"><title>Valiant Primary</title><path d="M82.3,485.47h3.8v13.2h5.55v3.11H82.27Z" fill="#fff"/><path d="M139.32,502.09c-5,0-5.73-3.29-5.73-8.47s.69-8.47,5.73-8.47c5.43,0,5.73,4,5.73,8.47S144.74,502.09,139.32,502.09Zm0-2.56c1.55,0,1.78-1.44,1.78-5.91s-.23-5.91-1.78-5.91-1.79,1.44-1.79,5.91.26,5.92,1.76,5.92Z" fill="#fff"/><path d="M191.31,496.8v.57c0,1.23.34,2.17,1.66,2.17a1.7,1.7,0,0,0,1.73-1.94c0-3.52-7.06-1.55-7.06-7.64,0-2.6,1.39-4.79,5.34-4.79s5.2,1.94,5.2,4.45V490h-3.7a3.35,3.35,0,0,0-.32-1.71,1.21,1.21,0,0,0-1.16-.57c-1,0-1.53.57-1.53,1.75,0,3.4,7.06,1.69,7.06,7.44,0,3.7-2,5.18-5.57,5.18-2.78,0-5.36-.85-5.36-4.24v-1Z" fill="#fff"/><path d="M291.5,485.47h4.79l4,16.29h-4l-.59-3.11h-3.9l-.57,3.11h-4Zm2.31,3h0l-1.35,7.26h2.78Z" fill="#fff"/><path d="M342.66,485.47h4.41l3.15,10.59h0V485.47h3.56v16.29h-4.34l-3.36-11.23h0v11.23h-3.43Z" fill="#fff"/><path d="M404.18,490.42c0-1-.11-2.71-1.53-2.71-1.57,0-1.75,1.59-1.75,5.94s.23,5.89,1.75,5.89c1.3,0,1.75-1.19,1.75-3.43v-.52h-1.8V493H408v8.74h-2.62l-.09-1.55h0c-.59,1.46-2,1.88-3.52,1.88-4.08,0-4.77-3-4.77-8.13,0-5.34.36-8.81,5.8-8.81,5,0,5.16,3.43,5.16,5.27Z" fill="#fff"/><path d="M451.06,485.47h9.43v3.11h-5.6v3.27h5.29V495h-5.25v3.72h5.85v3.11H451.1Z" fill="#fff"/><path d="M503.54,485.47h3.83v13.2h5.55v3.11h-9.38Z" fill="#fff"/><path d="M555.2,485.47h9.43v3.11H559v3.27h5.25V495H559v3.72h5.85v3.11h-9.68Z" fill="#fff"/><path d="M610.86,496.8v.57c0,1.23.34,2.17,1.66,2.17a1.7,1.7,0,0,0,1.73-1.94c0-3.52-7-1.55-7-7.64,0-2.6,1.39-4.79,5.34-4.79s5.2,1.94,5.2,4.45V490h-3.7a3.35,3.35,0,0,0-.32-1.71,1.21,1.21,0,0,0-1.16-.57c-1,0-1.53.57-1.53,1.75,0,3.4,7.06,1.69,7.06,7.44,0,3.7-2,5.18-5.57,5.18-2.78,0-5.36-.85-5.36-4.24v-1Z" fill="#fff"/><polygon points="543.13 77.13 425.73 185.13 350.18 144.08 274.78 185.05 157.29 77.13 131.21 35.41 164.88 146.48 172.9 158.09 209.14 195.1 210.76 197.12 180.88 189.63 193.77 231.49 197.58 235.17 235.89 265.92 236.97 267.12 208.77 264.76 232.95 301.19 235.09 302.84 258.42 317.33 262.48 323.01 268.65 346.26 275.26 357.3 319.87 422.14 321.25 423.72 338.54 434.65 340.88 435.92 332.47 414.67 277.42 276.41 275.05 259.8 275.97 259.81 329.42 271.08 331.16 273.79 332.43 290.14 345.07 324.42 350.19 339.82 355.31 324.42 367.95 290.14 369.22 273.79 370.98 271.08 424.42 259.81 425.33 259.8 422.98 276.41 367.91 414.67 359.5 435.92 361.85 434.65 379.13 423.72 380.52 422.14 425.13 357.3 431.74 346.26 437.9 323.01 441.96 317.33 465.3 302.84 467.43 301.19 491.61 264.76 463.41 267.12 464.49 265.92 502.8 235.17 506.63 231.49 519.5 189.63 489.63 197.12 491.25 195.1 527.5 158.09 535.51 146.48 569.18 35.41 543.13 77.13" fill="#e5d660"/><path d="M246.62,521.53h-13v75.62H280.3v-12.3H246.62Z" fill="#fff"/><path d="M333.45,596.16h12.7v-74.4h-12.7Z" fill="#fff"/><path d="M627.42,521.53v12.1H652v63.52h12.3V533.63h24.59v-12.1Z" fill="#fff"/><path d="M166.66,525.16c-1-2.28-1.92-3.64-4.94-3.64h-8.07c-3,0-3.93,1.36-4.94,3.64-7.41,16.66-29.08,64.66-32.37,72h11.09c2.93,0,3.92-.58,5-3.19,8.14-18.34,25.21-57.31,25.21-57.31s17,39,25.21,57.31c1.15,2.6,2.14,3.19,5,3.19H199C195.74,589.82,174.07,541.83,166.66,525.16Z" fill="#fff"/><path d="M433.87,525.16c-1-2.28-1.92-3.64-4.94-3.64h-8.07c-3,0-3.93,1.36-4.94,3.64-7.41,16.66-29.08,64.66-32.37,72h11.09c2.93,0,3.92-.58,5-3.19,8.14-18.34,25.21-57.31,25.21-57.31s17,39,25.21,57.31c1.15,2.6,2.14,3.19,5,3.19h11.09C462.95,589.82,441.28,541.83,433.87,525.16Z" fill="#fff"/><path d="M78,524.72C69.9,543.06,52.82,582,52.82,582s-17-39-25.21-57.31c-1.15-2.6-2.14-3.19-5-3.19H11.48c3.29,7.32,25,55.35,32.37,72,1,2.28,1.92,3.64,4.94,3.64h8.07c3,0,3.93-1.36,4.94-3.64,7.41-16.64,29.08-64.66,32.37-72H83.07C80.14,521.53,79.15,522.12,78,524.72Z" fill="#fff"/><path d="M568.83,576.3l-36.58-53.21a3.49,3.49,0,0,0-2.25-1.56H514.63v75.62h13.11V538l41,59H581.5V521.53H568.83Z" fill="#fff"/></svg>