<svg xmlns="http://www.w3.org/2000/svg" width="700" height="630" viewBox="0 0 700 630"><title>Fusion Primary</title><path d="M110,423.11h4.85a8,8,0,0,1,4,.8,4.15,4.15,0,0,1,1.61,1.77,6,6,0,0,1,.61,2.69,5.84,5.84,0,0,1-1,3.38,4,4,0,0,1-1.86,1.53,9.3,9.3,0,0,1-3.21.43h-1.48V440H110Zm3.5,3v4.5h1.19a3.17,3.17,0,0,0,2-.47,2.18,2.18,0,0,0,.68-1.78,2,2,0,0,0-.88-1.89,4,4,0,0,0-1.93-.35Z" fill="#fff"/><path d="M170.55,423.11V440h-3.49v-7.3h-7V440h-3.5V423.11h3.5v6.74h7v-6.74Z" fill="#fff"/><path d="M210.5,423.11V440H207V423.11Z" fill="#fff"/><path d="M250.21,423.11V437h5.36v3h-8.85V423.1Z" fill="#fff"/><path d="M299.94,423.11,306.57,440h-3.77l-1.38-3.48h-6.63L293.36,440h-3.68l6.82-16.93Zm-1.73,4.46-2.33,6.07h4.41Z" fill="#fff"/><path d="M341.25,423.11h4.62a17.84,17.84,0,0,1,4.32.37,6.7,6.7,0,0,1,4.29,3.57,10,10,0,0,1,1,4.51,8.46,8.46,0,0,1-2.54,6.58,6.25,6.25,0,0,1-2.57,1.5,16.32,16.32,0,0,1-4.09.38h-5Zm3.5,3V437h1.53a9.74,9.74,0,0,0,2.38-.24,3.67,3.67,0,0,0,1.53-.8,4.2,4.2,0,0,0,1.16-1.79,7.72,7.72,0,0,0,.44-2.59,6.16,6.16,0,0,0-.85-3.35,3.82,3.82,0,0,0-1.79-1.6,8.45,8.45,0,0,0-3.13-.45Z" fill="#fff"/><path d="M400.56,423.11v3h-5.83v3.73h5.72v3h-5.72v4h5.83v3h-9.35V423.1Z" fill="#fff"/><path d="M439.93,423.11V437h5.36v3h-8.86V423.1Z" fill="#fff"/><path d="M480.56,423.11h4.85a8,8,0,0,1,4,.8,4.15,4.15,0,0,1,1.65,1.78,6,6,0,0,1,.61,2.69,5.84,5.84,0,0,1-1,3.38,4,4,0,0,1-1.86,1.53,9.3,9.3,0,0,1-3.21.43h-1.5V440h-3.5Zm3.5,3v4.5h1.19a3.17,3.17,0,0,0,2-.47,2.18,2.18,0,0,0,.68-1.78,2,2,0,0,0-.88-1.89,4,4,0,0,0-1.93-.35Z" fill="#fff"/><path d="M541.11,423.11V440h-3.5v-7.3h-7V440h-3.5V423.11h3.5v6.74h7v-6.74Z" fill="#fff"/><path d="M581.05,423.11V440h-3.5V423.11Z" fill="#fff"/><path d="M626.13,423.11,632.75,440H629l-1.38-3.48H621L619.54,440h-3.68l6.82-16.93Zm-1.73,4.46-2.3,6.07h4.41Z" fill="#fff"/><path d="M461.79,148.33H311.2v73.3H248.62L311,261.82l.44,77.06,44.45-41.06V262l88.62.23,37.84-37.84V167.8S484.34,147.94,461.79,148.33Zm-105.92,40H431c2.36.07,10.32,1,10,10v9.69L427.88,221l-1.31.16H355.87Z"/><path d="M301.19,172.35c-12.23-30.19-14.53-55.42-5.37-70.09h0c-11.95-1-25.53,4.81-25.53,4.81,35.17-30.52,77-14.4,77-14.4h0c22.48,7.09,49.19,23.13,76,45.64h18.38C380.47,77.7,314.1,43.48,280.89,59s-23,75.56,20.3,144.11Z" fill="#fff"/><path d="M552.07,327.88a86,86,0,0,0-1-10.34h-.27c-1.86-12.68-6.08-27-12.53-42.4A354,354,0,0,0,514,228.67h0q3.67-4.63,7-9.15a171.42,171.42,0,0,0,17.27-30.4c7.23-18.28,6.47-33.38-3.87-43C522.24,134.93,498.78,133,469,138.9a29.81,29.81,0,0,1,10.82,3.89c22-4.23,44.64-2.41,53.28,10.52,14.52,21.74-23.15,68.86-23.15,68.86q-1-1.56-2-3.17-1.54-2.35-3.14-4.72c-4.1-6.05-8.51-12.15-12.38-17.37v14.41c7.41,10.33,12,17.65,11.95,17.8-7.78,10.13-19.32,21.34-30.25,31.06q-9.69,8.75-20.7,17.49h0c-5.92,4.75-9.79,7.66-9.79,7.66h0q-7.72,5.79-15.93,11.48-3.45,2.37-6.9,4.66a19.91,19.91,0,0,0-11-5.77c-11.15-1.89-22,5.36-24.34,16.2a19,19,0,0,0,.77,10.61c-64.72,35.76-126,49.92-149.75,32.56l-.7,3.35c-2,10.38,1.91,22.8,1.91,22.8-14.94-21.24-13.21-43.1-10-56.32,4.6-20,22.5-45.86,50.28-72.48l-10.42-6.71c-63.52,54.35-93.84,109-69,132,27,25,109.95,4,193.75-46.8a20.13,20.13,0,0,0,9.17,4.05c11.15,1.89,22-5.36,24.34-16.2a19.12,19.12,0,0,0-.38-9.48Q440.11,299,453.3,288.4h.06q3.53-2.88,6.87-5.7h0c26.35-22.25,43.13-41,47.37-45.92l1-1.18h0a282,282,0,0,1,23.13,44c5.45,13.16,9,25.41,10.63,36.29h-.17a97.08,97.08,0,0,1,1,10.17h.09q.09,3-.06,5.71a35.91,35.91,0,0,1-.8,7h0c-2,10.68-7.4,18.59-16.37,22.78-14.83,7-37.13,2.62-62.47-10.23h0s-13.2-6.12-39.34-21c0,0,7.12,9.37,32.86,25.24,30.68,16.4,57.75,22.22,75.42,13.94,12.63-5.9,18.92-18.3,19.58-35.18H552a3.37,3.37,0,0,1,.07-.56q.08-2.83,0-5.82Z" fill="#fff"/><path d="M164.86,482.92c4.38,0,4.36,0,7.53-2.89l24.67-24.68c.47-.49.9-.72.38-1.3H58.93v53.6H14.72c-.1.83,2.71,2.56,2.71,2.56l41.51,26.4v56.18c.63,0,1.7-1.09,1.7-1.09l28.15-28.18c1.6-1.79,1.6-2.32,1.6-3.78V536.59H132.1c2.62,0,3.17-.25,5.35-1.93l25.45-25.4c.45-.48.82-.89.56-1.5-3.37-.08-73.05-.11-73.05-.11V482.92Z"/><path d="M656.09,454v62.41L597.85,454H568.71V559.72h29.13V498c19.24,20.43,39.1,41.45,58.24,61.73H684V454Z"/><path d="M286.54,529.66V454H257.37v62.85a4.23,4.23,0,0,1-1.15,3.16l-10.55,10.42a5.14,5.14,0,0,1-1.89.13l-41-.1a.62.62,0,0,1-.29-.09,3.46,3.46,0,0,1-.55-.45V464.83c0-.88-.13-1.1-1-1.29l-28.88,29v67.27l84.54-.07c1.77,0,3.14,0,4.37-1.58l24.15-24.45A5.1,5.1,0,0,0,286.54,529.66Z"/><path d="M475.24,455.87l-29.17,29.6a5.87,5.87,0,0,0-1.38,4v70.23h84.56c1.77,0,3.13,0,4.36-1.58l24.15-24.19a5.87,5.87,0,0,0,1.38-4V454H479.63A5,5,0,0,0,475.24,455.87Zm53.46,27.68.51.48v35.18l-11.32,11.44H475.36l-.84-.67V497.35l13.8-13.79Z"/><path d="M399.73,488.09a1.14,1.14,0,0,0-.38.86v70.77h35.24V454a2,2,0,0,0-1.1.25Z"/><path d="M390.43,454.81s0-.78-.62-.78H293.73V483.9s30.72,26.88,36.84,32.14S343,526.7,349.23,532l-.23.77H298l-25.59,25.63a2.36,2.36,0,0,0-.58,1.29H390.43V531.34a4.43,4.43,0,0,0-1.78-3.73l-50.41-44.06c-.5-.44-1.41-1.06-1.28-2.16h52.43a1,1,0,0,0,.8-.37,1.31,1.31,0,0,0,.25-1C390.45,472.16,390.43,454.81,390.43,454.81Z"/></svg>