<svg xmlns="http://www.w3.org/2000/svg" width="700" height="630" viewBox="0 0 700 630"><title>Gladiators Primary</title><polygon points="218.36 588.12 183.21 515.54 150.6 515.54 159 523.58 135.43 572.73 115.62 572.73 115.62 523.5 122.98 515.54 88.73 515.54 95.12 523.63 95.12 580.52 86.28 588.12 178.04 588.12 178.04 566.86 169.92 573.16 155.91 573.16 172.57 537.45 191.3 580.52 184.34 588.12 218.36 588.12" fill="#fff"/><path d="M124.54,495c-.27,0-.43.18-.47.53a2.37,2.37,0,0,1-.48,1.12c-.43.47-1.15.5-2.27.5-1.6,0-2.09-.15-2.37-.4s-.35-1.9-.35-4.32v-8.1c0-.66.21-.9.57-1a5.35,5.35,0,0,1,.78-.06c.41,0,.63-.14.63-.43s-.51-.43-.69-.43h-5.67c-.19,0-.71,0-.71.43,0,.19.1.43.6.43a2.87,2.87,0,0,1,.64.06c.52.11.67.3.71,1s0,1.23,0,4.42v3.68c0,1.92,0,3.56-.1,4.43-.09.67-.19.9-.42.95a3.14,3.14,0,0,1-.7.08c-.5,0-.57.26-.57.41s.09.45.67.45H117c.81,0,1.54,0,2.55.06H123c1.14,0,1.37-.09,1.55-.75a16.63,16.63,0,0,0,.32-2.47C124.94,495.38,124.94,495,124.54,495Z" fill="#fff"/><path d="M164,482.12c-6.1,0-8.89,4.38-8.89,8.44s2.71,8.44,8.67,8.44a8.48,8.48,0,0,0,8.9-8q0-.39,0-.78C172.64,485.22,169.3,482.12,164,482.12Zm.67,15.36c-3.64,0-6.18-3.11-6.18-7.56,0-5.49,3-6.3,4.9-6.3,3.47,0,5.89,3,5.89,7.35,0,5.88-3.26,6.52-4.63,6.52Z" fill="#fff"/><path d="M210.19,488.74l-.58-.43c-1.8-1.36-2.12-2-2.12-2.81,0-1.16.88-1.92,2.25-1.92a2.43,2.43,0,0,1,2.09.94,2.29,2.29,0,0,1,.49,1.23c0,.56.31.62.45.62.47,0,.47-.58.47-.87a15,15,0,0,1,.07-2.16V483c0-.25-.16-.41-.47-.48a10.44,10.44,0,0,0-2.84-.36c-3,0-5,1.72-5,4.2,0,1.87,1,3.4,3.19,5.15l1,.76c1.63,1.28,2,2.16,2,3.16a2.32,2.32,0,0,1-2.48,2.15h-.08a2.67,2.67,0,0,1-2.76-1.94,4.19,4.19,0,0,1-.18-1c0-.52-.28-.6-.45-.6-.44,0-.48.58-.49.78v.06c0,.39-.1,1.59-.1,2.69,0,.51.08.74.54.94a7.42,7.42,0,0,0,3.16.56,6.23,6.23,0,0,0,3.46-.9,4.47,4.47,0,0,0,2.08-3.84C213.72,492.18,212.76,490.67,210.19,488.74Z" fill="#fff"/><path d="M295.51,497.85a4.33,4.33,0,0,1-.83-.08c-.28-.07-.86-.2-1.67-2.14s-2.16-5.31-3.3-8.16c-.9-2.26-1.67-4.21-1.9-4.71s-.38-.82-.75-.82-.58.43-.82,1L281,496.07c-.42,1.07-.79,1.62-1.58,1.73q-.31,0-.62,0c-.44,0-.49.29-.49.41,0,.45.48.45.65.45h4.69c.49,0,.6-.24.6-.45,0-.41-.4-.41-.55-.41h-.31c-.6,0-.6-.24-.6-.4a3.89,3.89,0,0,1,.3-1.19l1.13-3h4.61l1.67,4.45a.24.24,0,0,1,0,.14c-.13,0-.51.05-.51.43s.39.38.77.4h4.06c.75,0,1.21,0,1.21-.45C296,498.08,295.95,497.85,295.51,497.85Zm-7.27-6.13H284.8l1.74-4.66Z" fill="#fff"/><path d="M342,482.42h-4.58c-.27,0-.79,0-.79.43,0,.16.07.43.57.43a3.31,3.31,0,0,1,1,.11c.32.13.54.32.56,1.66l.2,8.89-1.17-1.22c-1-1.07-2.29-2.4-3.12-3.23-3.18-3.16-6.45-6.68-6.48-6.71l-.19-.21c-.27-.3-.46-.51-.76-.51-.51,0-.51.72-.51.95l-.19,12.38c0,1.79-.11,2.25-.47,2.36a3.55,3.55,0,0,1-.88.09c-.5,0-.57.26-.57.41,0,.45.49.45.71.45h4.85c.18,0,.73,0,.73-.45,0-.19-.1-.41-.6-.41a3.11,3.11,0,0,1-1-.13c-.22-.08-.52-.38-.56-2.1l-.21-8.21.09.1c.88,1,2.71,3,4.53,4.77l2.78,2.78c1.34,1.35,2.61,2.62,3.39,3.37a1.41,1.41,0,0,0,.89.53c.51,0,.51-.65.51-.89l.23-13.2c0-1.18.2-1.43.58-1.54a2,2,0,0,1,.56-.06c.56,0,.63-.3.63-.43C342.68,482.42,342.17,482.42,342,482.42Z" fill="#fff"/><path d="M390.13,490.38h-5.49c-.19,0-.69,0-.69.45,0,.12.05.41.55.41a4,4,0,0,1,.77.06c.54.11.69.31.71,1s0,1.43,0,2.46v2c0,.36-.1.48-.25.55a4.49,4.49,0,0,1-1.67.21c-4.15,0-7.06-3.14-7.06-7.62,0-2.29.61-3.9,1.84-4.94a5.8,5.8,0,0,1,4-1.24,6.47,6.47,0,0,1,4.49,1.55,2.67,2.67,0,0,1,.65,1.6.43.43,0,0,0,.45.48c.47,0,.47-.49.47-.69a27.3,27.3,0,0,1,.12-3.17v-.26c0-.3-.17-.46-.52-.49a13.75,13.75,0,0,1-1.61-.22,25.51,25.51,0,0,0-3.75-.34,10.37,10.37,0,0,0-5.76,1.39,8.07,8.07,0,0,0-3.76,7.06c0,6.22,5.12,8.44,9.91,8.44a12.46,12.46,0,0,0,5.16-1c.37-.22.39-.39.39-1v-4.8c0-.63.22-.89.6-1a3.11,3.11,0,0,1,.52-.06c.38,0,.51-.22.51-.41C390.79,490.38,390.29,490.38,390.13,490.38Z" fill="#fff"/><path d="M432.32,495.05c-.37,0-.43.33-.47.51-.14.8-.34,1.16-.81,1.37a5.17,5.17,0,0,1-1.87.23c-2.14,0-2.23-.31-2.27-1.52v-4.85c.69,0,2.48,0,2.82.06.73.08.9.36,1,.63a3.37,3.37,0,0,1,.06.52v.18a.4.4,0,0,0,.37.43h.06c.43,0,.43-.48.43-.65v-1.38c.05-.7.11-1.09.14-1.29a2.14,2.14,0,0,0,0-.25.38.38,0,0,0-.35-.41h0c-.21,0-.34.15-.51.35s-.41.2-.85.23-1.47,0-3.23,0V484c.62,0,2.53,0,2.84.08,1,.12,1.11.35,1.21.61a2,2,0,0,1,.11.66c0,.48.3.53.43.53s.37-.05.45-.43c0-.17.05-.6.08-1V484a8.47,8.47,0,0,1,.13-1.13,1.4,1.4,0,0,0,0-.24c0-.41-.3-.43-.37-.43a.91.91,0,0,0-.28.06h-.11c-.19,0-.7.1-.86.12s-2.15,0-5.22,0h-3c-.19,0-.71,0-.71.43,0,.19.1.43.6.43a4,4,0,0,1,.77.06c.52.11.67.3.71,1s0,1.23,0,4.42v3.68c0,1.92,0,3.56-.1,4.43-.09.67-.19.9-.42.95a3.13,3.13,0,0,1-.7.08c-.5,0-.57.26-.57.41s.09.45.67.45h2.63c.58,0,1.21,0,2.17.06h3.63c.81,0,1.17,0,1.36-.73a16.57,16.57,0,0,0,.28-2.38C432.73,495.46,432.73,495.05,432.32,495.05Z" fill="#fff"/><path d="M475.37,495c-.27,0-.43.18-.47.53a2.37,2.37,0,0,1-.48,1.12c-.43.47-1.15.5-2.27.5-1.6,0-2.09-.15-2.37-.4s-.35-1.9-.35-4.32v-8.1c0-.66.21-.9.57-1a5.35,5.35,0,0,1,.78-.06c.41,0,.62-.14.62-.43s-.51-.43-.69-.43H465c-.19,0-.71,0-.71.43,0,.19.1.43.6.43a2.87,2.87,0,0,1,.64.06c.52.11.67.3.71,1s0,1.23,0,4.42v3.68c0,1.92,0,3.56-.1,4.43-.09.67-.19.9-.42.95a3.13,3.13,0,0,1-.7.08c-.5,0-.57.26-.57.41s.09.45.67.45h2.63c.81,0,1.54,0,2.55.06h3.54c1.14,0,1.37-.09,1.55-.75a16.59,16.59,0,0,0,.32-2.47C475.78,495.38,475.78,495,475.37,495Z" fill="#fff"/><path d="M516.8,495.05c-.37,0-.43.33-.47.51-.14.8-.34,1.16-.81,1.37a5.17,5.17,0,0,1-1.87.23c-2.14,0-2.23-.31-2.27-1.52v-4.85c.69,0,2.48,0,2.82.06.73.08.9.36,1,.63a3.37,3.37,0,0,1,.06.52v.18a.4.4,0,0,0,.37.43h.06c.43,0,.43-.48.43-.65v-1.38c.05-.7.11-1.09.14-1.29a2.14,2.14,0,0,0,0-.25.38.38,0,0,0-.35-.41h0c-.21,0-.34.15-.51.35s-.41.2-.85.23-1.47,0-3.23,0V484c.62,0,2.53,0,2.84.08,1,.12,1.11.35,1.21.61a2,2,0,0,1,.11.66c0,.48.3.53.43.53s.37-.05.45-.43c0-.17.05-.6.08-1V484a8.47,8.47,0,0,1,.13-1.13,1.4,1.4,0,0,0,0-.24c0-.41-.3-.43-.37-.43a.91.91,0,0,0-.28.06h-.11c-.19,0-.7.1-.86.12s-2.15,0-5.22,0h-2.85c-.19,0-.71,0-.71.43,0,.19.1.43.6.43a4,4,0,0,1,.77.06c.52.11.67.3.71,1s0,1.23,0,4.42v3.68c0,1.92,0,3.56-.1,4.43-.09.67-.19.9-.42.95a3.13,3.13,0,0,1-.7.08c-.5,0-.57.26-.57.41s.09.45.67.45h2.63c.58,0,1.21,0,2.17.06h3.63c.81,0,1.17,0,1.36-.73a16.57,16.57,0,0,0,.28-2.38C517.22,495.46,517.22,495.05,516.8,495.05Z" fill="#fff"/><path d="M555,488.74l-.58-.43c-1.8-1.36-2.12-2-2.12-2.81,0-1.16.88-1.92,2.25-1.92a2.43,2.43,0,0,1,2.09.94,2.29,2.29,0,0,1,.49,1.23c0,.56.31.62.45.62.47,0,.47-.58.47-.87a15,15,0,0,1,.07-2.16V483c0-.25-.16-.41-.47-.48a10.43,10.43,0,0,0-2.84-.36c-3,0-5,1.72-5,4.2,0,1.87,1,3.4,3.19,5.15l1,.76c1.63,1.28,2,2.16,2,3.16a2.32,2.32,0,0,1-2.46,2.17h-.15a2.67,2.67,0,0,1-2.76-1.94,4.21,4.21,0,0,1-.18-1c0-.52-.28-.6-.45-.6-.44,0-.48.58-.49.78v.06c0,.39-.1,1.59-.1,2.69,0,.51.08.74.54.94A7.42,7.42,0,0,0,553,499a6.23,6.23,0,0,0,3.46-.9,4.47,4.47,0,0,0,2.08-3.84C558.49,492.18,557.53,490.67,555,488.74Z" fill="#fff"/><path d="M82.28,515.54v22.77l-8.69-8.07L49,530.3c-10.44.64-17.83,7.13-17.83,21.89,0,14.45,7.88,21.94,21.36,21.94a42,42,0,0,0,12.1-1.51V562.1l-17.26-9.68H85.06v29.75Q73,589.63,48.7,589.63q-39,0-39-38.15C9.66,527,24.44,515.54,54,515.54Z" fill="#fff"/><path d="M256.66,515.54H207L221.49,529l-.19,59.17h35.87q40.84,0,40.84-36Q298,515.54,256.66,515.54Zm-1.81,57H244.27V530.09h10.09q21.18,0,21.18,21.38-.05,21.08-20.67,21.08Z" fill="#fff"/><polygon points="460.72 532.28 469.71 515.54 396.35 515.54 396.35 536.54 401.56 532.28 422.3 532.28 422.3 582.65 418.52 587.21 382.71 515.54 350.08 515.54 358.49 523.58 328.8 585.49 323.6 580.52 323.6 521.83 329.75 515.54 295.46 515.54 301.86 521.95 301.86 580.6 295.19 588.12 327.54 588.12 331.57 588.12 377.53 588.12 377.53 566.86 369.41 573.16 355.41 573.16 372.07 537.45 390.79 580.52 383.83 588.12 417.78 588.12 418.99 588.12 448.22 588.12 443.96 582.9 443.96 532.28 460.72 532.28" fill="#fff"/><path d="M503.91,512.68q-42.23,0-42.23,37.72,0,38.85,43,38.85,41.15,0,41.15-38Q545.83,512.68,503.91,512.68Zm.56,60.89q-20,0-20-23.32,0-21.89,19.06-21.89,19.47,0,19.47,22.85,0,22.36-18.55,22.36Z" fill="#fff"/><path d="M619,537.52q0-22-27.7-22H545.83l4.27,4.92v59.64l-7.72,8.07h35l-6.05-8.6V562.26h9.48l13.7,20.47-4.47,5.47h32.21l-19.72-28.7Q619,555.48,619,537.52ZM586,545h-14.7V530.53h14.45c4.26-.15,10.7.1,11.09,4.94C597.37,542.4,593.48,545,586,545Z" fill="#fff"/><path d="M666.65,544.82c-14.12-4.17-20.74-7-20.74-10.09.17-3,2-4.65,7.35-4.65H677l7.44,5.83v-20.3s-37.75-.08-43.76-.08a18.32,18.32,0,0,0-5.52,2c-7.64,4.36-11.73,9.65-11.73,16.86a21.65,21.65,0,0,0,5.13,14.4c4.43,4.41,11.16,7.48,20.39,10.39,11.09,3.32,15.5,5.51,15.5,8.65,0,3.32-4.19,4.23-6.23,4.63h-23L624,561.71v26.46h32.79c20.17,0,29.73-7.06,29.73-22.31C686.48,556.23,681,550,666.65,544.82Z" fill="#fff"/><path d="M452.06,342.13c8.42,6.74,16.84,13.71,23.55,19.27l-.17-.14c35.48-35.3,57-83.82,55.65-134.23a188.32,188.32,0,0,1-50.62,138.44l-.07-.06,9.08,7.64,13.36,13.87A209.77,209.77,0,0,0,560.71,242.1c0-116.81-95.55-211.5-213.38-211.5A213.87,213.87,0,0,0,245.66,56.12V69.63s.6,1.44-1.44,1.56l-18.44-2.92C170.31,106.46,134,170.13,134,242.12a209.12,209.12,0,0,0,26.39,102l3.57-1.65a2.91,2.91,0,0,1,2.47,0l23.49,20.72a3.21,3.21,0,0,1,1.24,2v21.12c80.27,85.14,213.94,90.3,300.54,11.62-3.17-7.47-13.84-21.18-13.84-21.18l-3.6-4.82a184.31,184.31,0,0,1-83.94,46.58c-86.83,21.63-174.23-22.06-212.19-100,38.43,73.31,127.64,113,210.26,92.38a188,188,0,0,0,81.75-44.46M269,75.07c81.23-37.48,175.3-10.86,227.09,58.6-51.44-64.84-146.5-87.16-223.81-51.44C194,118.38,148.61,207.29,166.42,289.41,145.55,203.85,186.77,113,269,75.07ZM498.51,184.65a88.75,88.75,0,0,0-19.57-10.09s12.52,11.38,18,19.16c0,0,.95.56,0,3.79,0,0-8.07,24.57-20.29,32,0,0,1.27-9.08.5-10.91,0,0-.34-.6-.93,0,0,0-6.85,1.44-19.28-11.34,0,0-1.1-1.18-4.15-.6A58.18,58.18,0,0,0,422,239.28s-1.48,4.46,3.38,15.79c0,0,3.38,4,15.79,7.83,0,0,5.4,1.08,8.92,0a18.27,18.27,0,0,0,9.59-10.42l.76.24.72,10.26s-8.07,13.19-2,24.63a2.2,2.2,0,0,1-.48,2.08s-9.61,13.11-22.26,18.91l-12,4.94a59.4,59.4,0,0,1-15.44-3.81s9.82-4.45,14.24-11c0,0-1.34-20.84-28.41-27.23-4.16-1-10.36.07-10.36.07s3.9-6.19,5.12-11.19a31.44,31.44,0,0,0-.38-14s-6.88-4.52-24.78-3.27c0,0,9.37,21,11,25.66.38,1.12,25.45,67.85,27.81,95.61,0,0-8.07,13.71-33.59,26.85,0,0-13.44,7.17-36.74,7.17,0,0,15.13-11.47,19.8-25.3,0,0,21.6-44.18-47.08-81.06C285.6,281.26,262.24,261,262.24,261a156,156,0,0,0,37.4,39.85c17.44,12.87,30.75,28,32.95,49.71,0,0-15.44-21.92-81.69-45.38l-23.46-5s-17.86-6.66-25.87-54.56c0,0-2.32-20.27.91-38.22a33.62,33.62,0,0,1-26.61-9.68s16.41-5.31,22.41-13.27c0,0,9.22-9.25,10-10.09a27.16,27.16,0,0,0,4-6.16s21.71-38.75,53.3-49.27c0,0-29.32,37,13.85,81.69,0,0-27.23-43.69,1.21-89.1A198.88,198.88,0,0,1,272,92.29L272,89.83a67.78,67.78,0,0,0,34.69,7.57s19,.09,33.51,0c0,0,17.15.93,25,2.58s34,7.83,45.27,14.78A11.24,11.24,0,0,1,417,122s5.34,11.77,7.51,17.7a53.25,53.25,0,0,1,29.08,11.59s1.29,1.29.3,3.68a10.4,10.4,0,0,0-.9,3.39s18.21,1.9,34.24,9.08l12.85-.06S499.66,179.94,498.51,184.65Z" fill="#fff"/><path d="M349.8,121.79c-30.12-16.26-38.12-14.18-38.12-14.18-3.28-.44-3.44.89-3.44.89-5.5,26.5,3.42,47,3.42,47,4.76,4.89,15.13,10.93,15.13,10.93,10.82,16.39,25.67,52.44,25.67,52.44l-11.09-51.85c-.88-6.17-2.89-7.06-2.89-7.06l-15.88-11.6c-3.34-2-3.4-3.65-3.4-3.65-2.77-10.46-2.14-23.44-2.14-23.44,0-2.08,2.58-2,2.58-2,19.73.88,31.7,9.7,31.7,9.7,7.94-2.52,32.77-2.46,32.77-2.46C372.48,121.37,349.8,121.79,349.8,121.79Z" fill="#fff"/><path d="M439.89,163.21c-.23-4.41-5.34-2.55-5.34-2.55l-19.24,3,28,12.75-3.94-6.05Z" fill="#fff"/></svg>